<svg width="9" height="15" viewBox="0 0 9 15" fill="none" xmlns="http://www.w3.org/2000/svg">
<path d="M0 7.49577C0 7.64257 0.0265226 7.77809 0.0795678 7.90232C0.138507 8.02654 0.226916 8.14512 0.344794 8.25805L7.23183 14.712C7.43222 14.904 7.67387 15 7.95678 15C8.15128 15 8.32515 14.9548 8.47839 14.8645C8.63752 14.7798 8.76424 14.6612 8.85855 14.5088C8.95285 14.3619 9 14.1982 9 14.0175C9 13.7465 8.89096 13.5065 8.67289 13.2976L2.4666 7.49577L8.67289 1.69396C8.89096 1.48504 9 1.24788 9 0.982496C9 0.79616 8.95285 0.629588 8.85855 0.482778C8.76424 0.335968 8.63752 0.220215 8.47839 0.135517C8.32515 0.0451722 8.15128 0 7.95678 0C7.67387 0 7.43222 0.0931677 7.23183 0.279503L0.344794 6.73348C0.226916 6.84641 0.138507 6.96499 0.0795678 7.08922C0.0265226 7.21344 0 7.34896 0 7.49577Z" fill="black"/>
</svg>
