<svg width="352" height="414" viewBox="0 0 352 414" fill="none" xmlns="http://www.w3.org/2000/svg">
<path d="M224.045 161.282H222.951V131.333C222.951 129.057 222.502 126.803 221.63 124.7C220.758 122.597 219.48 120.686 217.868 119.077C216.257 117.467 214.344 116.191 212.239 115.319C210.134 114.448 207.877 114 205.598 114H142.079C137.477 114 133.063 115.826 129.809 119.077C126.555 122.327 124.727 126.736 124.727 131.333V295.633C124.727 297.91 125.176 300.164 126.048 302.267C126.92 304.37 128.198 306.28 129.809 307.89C131.42 309.5 133.333 310.776 135.439 311.647C137.544 312.518 139.8 312.967 142.079 312.967H205.598C210.2 312.967 214.614 311.141 217.868 307.89C221.122 304.639 222.951 300.231 222.951 295.634V182.6H224.045V161.282Z" fill="#3F3D56"/>
<path d="M244.404 312.995H104.368C104.27 312.995 104.177 312.956 104.108 312.888C104.039 312.819 104 312.725 104 312.628C104 312.531 104.039 312.437 104.108 312.368C104.177 312.3 104.27 312.261 104.368 312.261H244.404C244.502 312.261 244.595 312.3 244.664 312.368C244.733 312.437 244.772 312.531 244.772 312.628C244.772 312.725 244.733 312.819 244.664 312.888C244.595 312.956 244.502 312.995 244.404 312.995Z" fill="#CBCBCB"/>
<path d="M246.019 254.3C248.238 254.3 250.038 252.502 250.038 250.285C250.038 248.068 248.238 246.271 246.019 246.271C243.799 246.271 242 248.068 242 250.285C242 252.502 243.799 254.3 246.019 254.3Z" fill="#E1DCEB"/>
<path d="M108.019 266.029C110.238 266.029 112.038 264.232 112.038 262.014C112.038 259.797 110.238 258 108.019 258C105.799 258 104 259.797 104 262.014C104 264.232 105.799 266.029 108.019 266.029Z" fill="#FEE440"/>
<path d="M206.298 118.51H198.007C198.388 119.443 198.534 120.456 198.431 121.46C198.328 122.463 197.979 123.425 197.416 124.263C196.853 125.1 196.092 125.785 195.201 126.26C194.31 126.734 193.316 126.982 192.307 126.982H155.917C154.908 126.982 153.914 126.734 153.023 126.26C152.132 125.785 151.371 125.1 150.808 124.263C150.245 123.425 149.896 122.463 149.793 121.46C149.69 120.457 149.836 119.443 150.217 118.51H142.473C140.771 118.51 139.086 118.844 137.514 119.495C135.942 120.145 134.513 121.099 133.31 122.301C132.107 123.503 131.152 124.93 130.501 126.5C129.85 128.071 129.515 129.754 129.515 131.454V295.513C129.515 297.213 129.85 298.896 130.501 300.466C131.152 302.037 132.107 303.464 133.31 304.666C134.513 305.868 135.942 306.821 137.514 307.472C139.086 308.122 140.771 308.457 142.473 308.457H206.298C208 308.457 209.685 308.122 211.257 307.472C212.829 306.821 214.258 305.868 215.461 304.666C216.665 303.464 217.619 302.037 218.27 300.467C218.922 298.896 219.257 297.213 219.257 295.513V131.454C219.257 129.754 218.922 128.071 218.27 126.5C217.619 124.93 216.665 123.503 215.461 122.301C214.258 121.099 212.829 120.145 211.257 119.495C209.685 118.844 208 118.51 206.298 118.51Z" fill="white"/>
<path d="M174.386 240.916C191.528 240.916 205.424 227.035 205.424 209.912C205.424 192.789 191.528 178.907 174.386 178.907C157.244 178.907 143.348 192.789 143.348 209.912C143.348 227.035 157.244 240.916 174.386 240.916Z" fill="#F1BD40"/>
<path d="M171.31 221.739C170.612 221.74 169.932 221.515 169.374 221.096L169.339 221.07L162.044 215.496C161.707 215.238 161.423 214.915 161.21 214.547C160.997 214.179 160.859 213.772 160.803 213.351C160.747 212.929 160.775 212.501 160.885 212.09C160.995 211.679 161.185 211.294 161.444 210.956C161.703 210.619 162.026 210.336 162.395 210.123C162.763 209.91 163.17 209.772 163.592 209.716C164.014 209.661 164.443 209.689 164.854 209.799C165.266 209.908 165.651 210.098 165.989 210.357L170.714 213.976L181.878 199.426C182.137 199.089 182.46 198.806 182.829 198.593C183.197 198.38 183.604 198.242 184.026 198.187C184.447 198.131 184.876 198.159 185.287 198.269C185.698 198.379 186.084 198.568 186.421 198.827L186.422 198.828L186.353 198.924L186.424 198.828C187.105 199.351 187.551 200.122 187.664 200.973C187.776 201.824 187.546 202.685 187.024 203.366L173.891 220.473C173.588 220.867 173.197 221.186 172.75 221.405C172.303 221.624 171.811 221.737 171.313 221.735L171.31 221.739Z" fill="white"/>
<path d="M269.592 147.169C273.232 147.169 276.183 144.221 276.183 140.584C276.183 136.948 273.232 134 269.592 134C265.951 134 263 136.948 263 140.584C263 144.221 265.951 147.169 269.592 147.169Z" fill="#FEE440"/>
<path d="M204.592 83.169C208.232 83.169 211.183 80.221 211.183 76.5845C211.183 72.948 208.232 70 204.592 70C200.951 70 198 72.948 198 76.5845C198 80.221 200.951 83.169 204.592 83.169Z" fill="black"/>
<path d="M92 153C96.4183 153 100 149.418 100 145C100 140.582 96.4183 137 92 137C87.5817 137 84 140.582 84 145C84 149.418 87.5817 153 92 153Z" fill="#E1DCEB"/>
</svg>
